<svg xmlns="http://www.w3.org/2000/svg" viewBox="0 0 744 24" width="744" height="24"><g fill="none" stroke="#121217" stroke-width="2" stroke-dasharray="0,16" stroke-dashoffset="16" stroke-linecap="round"><path d="M4 7h16M4 12h16M4 17h16"/></g><g fill="none" stroke="#121217" stroke-width="2" stroke-dashoffset="16" stroke-linecap="round"><path d="M28 7h16" stroke-dasharray="0.41754040234512363,15.582459597654877"/><path d="M28 12h16M28 17h16" stroke-dasharray="0,16"/></g><g fill="none" stroke="#121217" stroke-width="2" stroke-dashoffset="16" stroke-linecap="round"><path d="M52 7h16" stroke-dasharray="2.164994130095934,13.835005869904066"/><path d="M52 12h16M52 17h16" stroke-dasharray="0,16"/></g><g fill="none" stroke="#121217" stroke-width="2" stroke-dashoffset="16" stroke-linecap="round"><path d="M76 7h16" stroke-dasharray="5.929441692599884,10.070558307400116"/><path d="M76 12h16M76 17h16" stroke-dasharray="0,16"/></g><g fill="none" stroke="#121217" stroke-width="2" stroke-dashoffset="16" stroke-linecap="round"><path d="M100 7h16" stroke-dasharray="9.869655445043707,6.130344554956293"/><path d="M100 12h16M100 17h16" stroke-dasharray="0,16"/></g><g fill="none" stroke="#121217" stroke-width="2" stroke-dashoffset="16" stroke-linecap="round"><path d="M124 7h16" stroke-dasharray="12.44930967473517,3.5506903252648296"/><path d="M124 12h16M124 17h16" stroke-dasharray="0,16"/></g><g fill="none" stroke="#121217" stroke-width="2" stroke-dashoffset="16" stroke-linecap="round"><path d="M148 7h16" stroke-dasharray="14.045585848780867,1.954414151219133"/><path d="M148 12h16M148 17h16" stroke-dasharray="0,16"/></g><g fill="none" stroke="#121217" stroke-width="2" stroke-dashoffset="16" stroke-linecap="round"><path d="M172 7h16" stroke-dasharray="15.033403993918288,0.966596006081712"/><path d="M172 12h16M172 17h16" stroke-dasharray="0,16"/></g><g fill="none" stroke="#121217" stroke-width="2" stroke-dashoffset="16" stroke-linecap="round"><path d="M196 7h16" stroke-dasharray="15.61807997245602,0.38192002754398047"/><path d="M196 12h16M196 17h16" stroke-dasharray="0,16"/></g><g fill="none" stroke="#121217" stroke-width="2" stroke-dashoffset="16" stroke-linecap="round"><path d="M220 7h16" stroke-dasharray="15.916333223878395,0.08366677612160522"/><path d="M220 12h16M220 17h16" stroke-dasharray="0,16"/></g><g fill="none" stroke="#121217" stroke-width="2" stroke-linecap="round"><path d="M244 7h16"/><path d="M244 12h16" stroke-dasharray="0.0005418579369006486,15.9994581420631" stroke-dashoffset="16"/><path d="M244 17h16" stroke-dasharray="0,16" stroke-dashoffset="16"/></g><g fill="none" stroke="#121217" stroke-width="2" stroke-linecap="round"><path d="M268 7h16"/><path d="M268 12h16" stroke-dasharray="0.45599924444850126,15.5440007555515" stroke-dashoffset="16"/><path d="M268 17h16" stroke-dasharray="0,16" stroke-dashoffset="16"/></g><g fill="none" stroke="#121217" stroke-width="2" stroke-linecap="round"><path d="M292 7h16"/><path d="M292 12h16" stroke-dasharray="2.2764459630415486,13.72355403695845" stroke-dashoffset="16"/><path d="M292 17h16" stroke-dasharray="0,16" stroke-dashoffset="16"/></g><g fill="none" stroke="#121217" stroke-width="2" stroke-linecap="round"><path d="M316 7h16"/><path d="M316 12h16" stroke-dasharray="6.105134258861064,9.894865741138936" stroke-dashoffset="16"/><path d="M316 17h16" stroke-dasharray="0,16" stroke-dashoffset="16"/></g><g fill="none" stroke="#121217" stroke-width="2" stroke-linecap="round"><path d="M340 7h16"/><path d="M340 12h16" stroke-dasharray="9.998321071623039,6.001678928376961" stroke-dashoffset="16"/><path d="M340 17h16" stroke-dasharray="0,16" stroke-dashoffset="16"/></g><g fill="none" stroke="#121217" stroke-width="2" stroke-linecap="round"><path d="M364 7h16"/><path d="M364 12h16" stroke-dasharray="12.528814696658005,3.4711853033419953" stroke-dashoffset="16"/><path d="M364 17h16" stroke-dasharray="0,16" stroke-dashoffset="16"/></g><g fill="none" stroke="#121217" stroke-width="2" stroke-linecap="round"><path d="M388 7h16"/><path d="M388 12h16" stroke-dasharray="14.094992307842608,1.9050076921573922" stroke-dashoffset="16"/><path d="M388 17h16" stroke-dasharray="0,16" stroke-dashoffset="16"/></g><g fill="none" stroke="#121217" stroke-width="2" stroke-linecap="round"><path d="M412 7h16"/><path d="M412 12h16" stroke-dasharray="15.063546130871005,0.9364538691289948" stroke-dashoffset="16"/><path d="M412 17h16" stroke-dasharray="0,16" stroke-dashoffset="16"/></g><g fill="none" stroke="#121217" stroke-width="2" stroke-linecap="round"><path d="M436 7h16"/><path d="M436 12h16" stroke-dasharray="15.634922532935802,0.3650774670641983" stroke-dashoffset="16"/><path d="M436 17h16" stroke-dasharray="0,16" stroke-dashoffset="16"/></g><g fill="none" stroke="#121217" stroke-width="2" stroke-linecap="round"><path d="M460 7h16"/><path d="M460 12h16" stroke-dasharray="15.923421436591738,0.07657856340826186" stroke-dashoffset="16"/><path d="M460 17h16" stroke-dasharray="0,16" stroke-dashoffset="16"/></g><g fill="none" stroke="#121217" stroke-width="2" stroke-linecap="round"><path d="M484 7h16M484 12h16"/><path d="M484 17h16" stroke-dasharray="0.0021325269970715356,15.997867473002929" stroke-dashoffset="16"/></g><g fill="none" stroke="#121217" stroke-width="2" stroke-linecap="round"><path d="M508 7h16M508 12h16"/><path d="M508 17h16" stroke-dasharray="0.4832934160065799,15.51670658399342" stroke-dashoffset="16"/></g><g fill="none" stroke="#121217" stroke-width="2" stroke-linecap="round"><path d="M532 7h16M532 12h16"/><path d="M532 17h16" stroke-dasharray="2.319882934412022,13.680117065587979" stroke-dashoffset="16"/></g><g fill="none" stroke="#121217" stroke-width="2" stroke-linecap="round"><path d="M556 7h16M556 12h16"/><path d="M556 17h16" stroke-dasharray="6.119769287721051,9.880230712278948" stroke-dashoffset="16"/></g><g fill="none" stroke="#121217" stroke-width="2" stroke-linecap="round"><path d="M580 7h16M580 12h16"/><path d="M580 17h16" stroke-dasharray="9.970951496780616,6.029048503219384" stroke-dashoffset="16"/></g><g fill="none" stroke="#121217" stroke-width="2" stroke-linecap="round"><path d="M604 7h16M604 12h16"/><path d="M604 17h16" stroke-dasharray="12.488306358614757,3.511693641385243" stroke-dashoffset="16"/></g><g fill="none" stroke="#121217" stroke-width="2" stroke-linecap="round"><path d="M628 7h16M628 12h16"/><path d="M628 17h16" stroke-dasharray="14.055069410042988,1.9449305899570124" stroke-dashoffset="16"/></g><g fill="none" stroke="#121217" stroke-width="2" stroke-linecap="round"><path d="M652 7h16M652 12h16"/><path d="M652 17h16" stroke-dasharray="15.030137037742282,0.969862962257718" stroke-dashoffset="16"/></g><g fill="none" stroke="#121217" stroke-width="2" stroke-linecap="round"><path d="M676 7h16M676 12h16"/><path d="M676 17h16" stroke-dasharray="15.611134372577125,0.38886562742287545" stroke-dashoffset="16"/></g><g fill="none" stroke="#121217" stroke-width="2" stroke-linecap="round"><path d="M700 7h16M700 12h16"/><path d="M700 17h16" stroke-dasharray="15.91115127684234,0.08884872315766046" stroke-dashoffset="16"/></g><g fill="none" stroke="#121217" stroke-width="2" stroke-linecap="round"><path d="M724 7h16M724 12h16M724 17h16"/></g></svg>